<svg width="50" height="50" viewBox="0 0 50 50" fill="none" xmlns="http://www.w3.org/2000/svg">
<path d="M1.04199 0.5C1.3407 0.500176 1.58301 0.743243 1.58301 1.04199V44.792C1.58319 46.7908 3.20921 48.4168 5.20801 48.417H48.958C49.2568 48.417 49.4998 48.6593 49.5 48.958C49.5 49.2569 49.2569 49.5 48.958 49.5H5.20801C2.61357 49.4998 0.500178 47.3864 0.5 44.792V1.04199C0.5 0.743135 0.743135 0.5 1.04199 0.5ZM36.458 10.917H44.792C47.3863 10.9172 49.498 13.0302 49.498 15.625V23.96C49.498 24.2588 49.2549 24.502 48.9561 24.502C48.6573 24.5018 48.415 24.2588 48.415 23.96V15.627C48.415 15.0665 48.2867 14.5362 48.0596 14.0625L47.7539 13.4268L47.2549 13.9258L47.2314 13.9482L35.2207 25.2168L35.2148 25.2217L35.209 25.2275C33.3995 27.0389 30.4095 27.0423 28.5742 25.2051L28.5586 25.1895L28.542 25.1748L26.5654 23.5195C25.1056 22.0911 22.9071 22.1082 21.5264 23.3545L21.3945 23.4795L9.75195 34.7637C9.64686 34.8655 9.51079 34.917 9.375 34.917C9.26917 34.917 9.16262 34.886 9.07129 34.8242L8.98633 34.752C8.80473 34.5647 8.78607 34.2783 8.92773 34.0703L8.99805 33.9863L20.6357 22.707L20.6416 22.7012C22.3901 20.9511 25.5189 20.9408 27.2881 22.7119L27.3037 22.7275L27.3203 22.7412L29.2959 24.3955C30.7666 25.8419 33.0429 25.8504 34.4561 24.4473L34.457 24.4482L46.4795 13.1689L47.0146 12.667L46.3516 12.3525C45.8793 12.1285 45.3503 12.0001 44.792 12H36.458C36.1593 11.9998 35.917 11.7568 35.917 11.458C35.9172 11.1594 36.1594 10.9172 36.458 10.917Z" fill="#EDF0F5" stroke="#EDF0F5"/>
</svg>
