<svg width="60" height="60" viewBox="0 0 60 60" fill="none" xmlns="http://www.w3.org/2000/svg">
<g id="Frame 2121456558">
<rect width="60" height="60" fill="#EDF0F5"/>
<g id="Sticker">
<path id="Vector" d="M31 41H25C23.4087 41 21.8826 40.3679 20.7574 39.2426C19.6321 38.1174 19 36.5913 19 35V25C19 23.4087 19.6321 21.8826 20.7574 20.7574C21.8826 19.6321 23.4087 19 25 19H35C36.5913 19 38.1174 19.6321 39.2426 20.7574C40.3679 21.8826 41 23.4087 41 25V31C40 34 34 40 31 41Z" stroke="#181818" stroke-width="1.5" stroke-linecap="round" stroke-linejoin="round"/>
<path id="Vector_2" d="M31 41V37C31 35.4087 31.6321 33.8826 32.7574 32.7574C33.8826 31.6321 35.4087 31 37 31H41" stroke="#181818" stroke-width="1.5" stroke-linecap="round" stroke-linejoin="round"/>
</g>
</g>
</svg>
