<svg width="60" height="60" viewBox="0 0 60 60" fill="none" xmlns="http://www.w3.org/2000/svg">
<g id="Frame 2121456558">
<rect width="60" height="60" fill="#151515"/>
<g id="Chats">
<path id="Vector" d="M22.4479 32L17.5 36V20C17.5 19.7348 17.6054 19.4804 17.7929 19.2929C17.9804 19.1054 18.2348 19 18.5 19H34.5C34.7652 19 35.0196 19.1054 35.2071 19.2929C35.3946 19.4804 35.5 19.7348 35.5 20V31C35.5 31.2652 35.3946 31.5196 35.2071 31.7071C35.0196 31.8946 34.7652 32 34.5 32H22.4479Z" stroke="#EDF0F5" stroke-width="1.5" stroke-linecap="round" stroke-linejoin="round"/>
<path id="Vector_2" d="M23.5 32V37C23.5 37.2652 23.6054 37.5196 23.7929 37.7071C23.9804 37.8946 24.2348 38 24.5 38H36.5521L41.5 42V26C41.5 25.7348 41.3946 25.4804 41.2071 25.2929C41.0196 25.1054 40.7652 25 40.5 25H35.5" stroke="#EDF0F5" stroke-width="1.5" stroke-linecap="round" stroke-linejoin="round"/>
</g>
</g>
</svg>
