<svg width="60" height="60" viewBox="0 0 60 60" fill="none" xmlns="http://www.w3.org/2000/svg">
<g id="Frame 2121456558">
<rect width="60" height="60" fill="#EDF0F5"/>
<g id="ChatsTeardrop">
<path id="Vector" d="M25.3946 37.499H15.082C14.8334 37.499 14.5949 37.4003 14.4191 37.2244C14.2433 37.0486 14.1445 36.8102 14.1445 36.5615V26.249C14.1445 23.2653 15.3298 20.4038 17.4396 18.2941C19.5494 16.1843 22.4108 14.999 25.3945 14.999H25.3945C28.3782 14.999 31.2397 16.1843 33.3495 18.2941C35.4593 20.4039 36.6445 23.2653 36.6445 26.249V26.249C36.6445 29.2327 35.4593 32.0942 33.3495 34.204C31.2397 36.3138 28.3782 37.499 25.3946 37.499V37.499Z" stroke="#181818" stroke-width="1.5" stroke-linecap="round" stroke-linejoin="round"/>
<path id="Vector_2" d="M24.7852 37.4991C25.5615 39.6925 26.9985 41.5914 28.8985 42.9344C30.7985 44.2775 33.0681 44.9986 35.3948 44.9986H45.7073C45.956 44.9986 46.1944 44.8999 46.3703 44.7241C46.5461 44.5482 46.6448 44.3098 46.6448 44.0611V33.7486C46.6448 30.8713 45.5424 28.1034 43.5642 26.014C41.586 23.9246 38.8825 22.6725 36.0096 22.5151" stroke="#181818" stroke-width="1.5" stroke-linecap="round" stroke-linejoin="round"/>
</g>
</g>
</svg>
