<svg width="60" height="60" viewBox="0 0 60 60" fill="none" xmlns="http://www.w3.org/2000/svg">
<g id="Frame 2121456558">
<rect width="60" height="60" fill="#151515"/>
<g id="ChartPieSlice">
<path id="Vector" d="M30.25 30V15" stroke="#EDF0F5" stroke-width="1.5" stroke-linecap="round" stroke-linejoin="round"/>
<path id="Vector_2" d="M43.2405 22.5L17.2598 37.5" stroke="#EDF0F5" stroke-width="1.5" stroke-linecap="round" stroke-linejoin="round"/>
<path id="Vector_3" d="M15.5001 32.7422C14.8507 29.2275 15.4755 25.5964 17.2625 22.501C19.0494 19.4056 21.8814 17.0487 25.2498 15.8535V27.1132L15.5001 32.7422Z" stroke="#EDF0F5" stroke-width="1.5" stroke-linecap="round" stroke-linejoin="round"/>
<path id="Vector_4" d="M30.2513 15C32.8793 15.0005 35.4611 15.6914 37.7381 17.0036C40.0151 18.3158 41.9074 20.2032 43.2255 22.4768C44.5436 24.7503 45.2412 27.3303 45.2485 29.9583C45.2558 32.5863 44.5725 35.1702 43.2671 37.451C41.9616 39.7319 40.0799 41.6298 37.8102 42.9546C35.5405 44.2794 32.9626 44.9847 30.3346 44.9998C27.7067 45.0148 25.1208 44.3392 22.8361 43.0405C20.5514 41.7419 18.6479 39.8657 17.3164 37.6" stroke="#EDF0F5" stroke-width="1.5" stroke-linecap="round" stroke-linejoin="round"/>
</g>
</g>
</svg>
