<svg width="32" height="32" viewBox="0 0 32 32" fill="none" xmlns="http://www.w3.org/2000/svg">
<g id="DribbbleLogo">
<path id="Vector" d="M16 28C22.6274 28 28 22.6274 28 16C28 9.37258 22.6274 4 16 4C9.37258 4 4 9.37258 4 16C4 22.6274 9.37258 28 16 28Z" stroke="white" stroke-width="2" stroke-linecap="round" stroke-linejoin="round"/>
<path id="Vector_2" d="M8.875 25.6591C10.655 22.7103 13.1668 20.2714 16.1668 18.5791C19.1668 16.8867 22.5532 15.9983 25.9976 16C26.6722 16 27.3385 16.0329 27.9965 16.0986" stroke="white" stroke-width="2" stroke-linecap="round" stroke-linejoin="round"/>
<path id="Vector_3" d="M23.5062 6.63672C21.6325 8.93981 19.2685 10.7959 16.5866 12.0697C13.9047 13.3435 10.9724 14.003 8.0033 14.0001C6.73863 14.0007 5.47674 13.882 4.23438 13.6455" stroke="white" stroke-width="2" stroke-linecap="round" stroke-linejoin="round"/>
<path id="Vector_4" d="M10.7422 5.21094C13.7496 6.97553 16.2431 9.49603 17.9752 12.5222C19.7073 15.5484 20.6178 18.975 20.6163 22.4618C20.6174 24.0956 20.4188 25.7234 20.0249 27.3089" stroke="white" stroke-width="2" stroke-linecap="round" stroke-linejoin="round"/>
</g>
</svg>
