<svg width="32" height="32" viewBox="0 0 32 32" fill="none" xmlns="http://www.w3.org/2000/svg">
<g id="FigmaLogo">
<path id="Vector" d="M20.25 20.25C22.5972 20.25 24.5 18.3472 24.5 16C24.5 13.6528 22.5972 11.75 20.25 11.75C17.9028 11.75 16 13.6528 16 16C16 18.3472 17.9028 20.25 20.25 20.25Z" stroke="black" stroke-width="2" stroke-linecap="round" stroke-linejoin="round"/>
<path id="Vector_2" d="M16 11.7499V3.25H11.75C10.6228 3.25 9.54183 3.69777 8.7448 4.4948C7.94777 5.29183 7.5 6.37283 7.5 7.5C7.5 8.62717 7.94777 9.70817 8.7448 10.5052C9.54183 11.3022 10.6228 11.75 11.75 11.75L16 11.7499Z" stroke="black" stroke-width="2" stroke-linecap="round" stroke-linejoin="round"/>
<path id="Vector_3" d="M16 20.2499V11.75H11.75C10.6228 11.75 9.54183 12.1978 8.7448 12.9948C7.94777 13.7918 7.5 14.8728 7.5 16C7.5 17.1272 7.94777 18.2082 8.7448 19.0052C9.54183 19.8022 10.6228 20.25 11.75 20.25L16 20.2499Z" stroke="black" stroke-width="2" stroke-linecap="round" stroke-linejoin="round"/>
<path id="Vector_4" d="M16 11.7499V3.25H20.25C21.3772 3.25 22.4582 3.69777 23.2552 4.4948C24.0522 5.29183 24.5 6.37283 24.5 7.5C24.5 8.62717 24.0522 9.70817 23.2552 10.5052C22.4582 11.3022 21.3772 11.75 20.25 11.75L16 11.7499Z" stroke="black" stroke-width="2" stroke-linecap="round" stroke-linejoin="round"/>
<path id="Vector_5" d="M16 20.25V24.5001C16 25.3406 15.7508 26.1623 15.2838 26.8612C14.8168 27.5602 14.153 28.1049 13.3764 28.4266C12.5999 28.7483 11.7453 28.8324 10.9209 28.6685C10.0965 28.5045 9.3392 28.0997 8.74482 27.5053C8.15044 26.911 7.74566 26.1537 7.58167 25.3293C7.41768 24.5048 7.50184 23.6503 7.82351 22.8737C8.14518 22.0971 8.68991 21.4334 9.38882 20.9664C10.0877 20.4994 10.9094 20.2501 11.75 20.2501L16 20.25Z" stroke="black" stroke-width="2" stroke-linecap="round" stroke-linejoin="round"/>
</g>
</svg>
