<svg width="40" height="40" viewBox="0 0 40 40" fill="none" xmlns="http://www.w3.org/2000/svg">
<path id="Vector" d="M13.3333 20C13.3333 23.6837 16.3171 26.6667 20 26.6667C20.5749 26.6667 21.1331 26.5958 21.6669 26.4585C23.9376 30.5585 28.3129 33.3333 33.3333 33.3333C33.8961 33.3333 34.4497 33.2998 34.9956 33.2289C31.3333 37.3792 25.9743 40 19.9992 40C8.95421 40.0008 0 31.0466 0 20C0 8.95345 8.95421 0 20 0C25.9751 0 31.3333 2.62076 34.9964 6.77113C38.1128 10.2962 40.0008 14.9255 40.0008 20.0008C40.0008 23.6845 37.017 26.6674 33.3341 26.6674C29.6511 26.6674 26.6674 23.6837 26.6674 20.0008C26.6674 16.8928 24.5423 14.2842 21.6676 13.5423C21.1346 13.405 20.5757 13.3341 20.0008 13.3341C16.3171 13.3341 13.3341 16.3178 13.3341 20.0008L13.3333 20Z" fill="black"/>
</svg>
